<?xml version="1.0" encoding="utf-8"?>
<!-- Generator: Adobe Illustrator 25.0.1, SVG Export Plug-In . SVG Version: 6.00 Build 0)  -->
<svg version="1.0" id="katman_1" xmlns="http://www.w3.org/2000/svg" xmlns:xlink="http://www.w3.org/1999/xlink" x="0px" y="0px"
	 viewBox="0 0 74.9 56.7" style="enable-background:new 0 0 74.9 56.7;" xml:space="preserve">
<g>
	<g>
		<path d="M18.2,35.4c-1.5,1-1,2.9,2.2,3.8c3.3,1.1,6.9,1.4,10.4,0.8c0.2,0,0.4-0.1,0.5-0.1v-3.4l-3.4,1.1c-1.3,0.4-2.6,0.5-3.9,0.2
			c-1-0.3-0.8-0.9,0.4-1.4l6.9-2.4v-3.7l-9.6,3.3C20.5,34,19.3,34.6,18.2,35.4z M41.4,20.4v9.7c4.1,2,7.3,0,7.3-5.2
			c0-5.3-1.9-7.7-7.4-9.6c-2.9-1-5.9-1.9-8.9-2.5v28.9l7,2.1V19.5c0-1.1,0-1.9,0.8-1.6C41.3,18.2,41.4,19.3,41.4,20.4z M54.4,33.1
			c-2.9-1-6-1.4-9-1.1c-1.6,0.1-3.1,0.5-4.5,1l-0.3,0.1V37l6.5-2.4c1.3-0.4,2.6-0.5,3.9-0.2c1,0.3,0.8,0.9-0.4,1.4l-10,3.7v3.8
			l13.8-5.1c1-0.4,1.9-0.9,2.7-1.7C57.8,35.5,57.5,34.1,54.4,33.1z"/>
	</g>
</g>
</svg>
